<svg width="390" height="199" viewBox="0 0 390 199" fill="none" xmlns="http://www.w3.org/2000/svg">
<mask id="mask0_314_23" style="mask-type:alpha" maskUnits="userSpaceOnUse" x="0" y="0" width="390" height="199">
<rect width="390" height="199" rx="41.757" fill="url(#paint0_linear_314_23)"/>
</mask>
<g mask="url(#mask0_314_23)">
<path d="M373.317 139.855C377.572 148.792 374.985 159.009 367.54 162.676C360.094 166.343 350.609 162.072 346.354 153.135C342.099 144.199 344.685 133.981 352.131 130.314C359.577 126.647 369.062 130.918 373.317 139.855Z" fill="#F7B803"/>
<path d="M342.416 155.922C348.884 163.359 349.104 173.907 342.908 179.482C336.711 185.056 326.445 183.546 319.977 176.109C313.509 168.671 313.289 158.123 319.485 152.549C325.682 146.974 335.949 148.484 342.416 155.922Z" fill="#F7B803"/>
<path d="M325.777 189.295C333.258 191.764 337.655 198.993 335.598 205.441C333.54 211.888 325.808 215.113 318.327 212.644C310.846 210.175 306.449 202.946 308.506 196.498C310.564 190.05 318.296 186.826 325.777 189.295Z" fill="#F7B803"/>
<path d="M406.309 146.287C408.563 154.227 405.028 162.239 398.413 164.182C391.798 166.125 384.608 161.264 382.353 153.324C380.099 145.385 383.633 137.373 390.249 135.43C396.864 133.487 404.054 138.348 406.309 146.287Z" fill="#F7B803"/>
<path d="M403.508 175.134C421.215 184.111 421.956 212.231 409.751 226.051C397.545 239.87 370.18 241.713 359.308 225.178C348.422 206.078 340.86 188.08 353.065 174.261C365.27 160.442 382.338 164.402 403.508 175.134Z" fill="#F7B803"/>
<path d="M52.2186 57.273C43.0842 61.2294 33.0074 58.0536 29.7114 50.1797C26.4153 42.3058 31.1483 32.7155 40.2827 28.7591C49.4171 24.8027 59.4939 27.9785 62.7899 35.8524C66.0859 43.7263 61.353 53.3166 52.2186 57.273Z" fill="#F7B803"/>
<path d="M37.6934 24.5536C29.9474 30.8704 19.4019 30.5783 14.1396 23.9011C8.87726 17.2239 10.8907 6.69014 18.6368 0.373338C26.3829 -5.94346 36.9283 -5.6513 42.1907 1.02591C47.453 7.70312 45.4395 18.2368 37.6934 24.5536Z" fill="#F7B803"/>
<path d="M5.18218 5.71778C2.34773 13.326 -5.08807 17.5129 -11.4261 15.0695C-17.7642 12.6261 -20.6045 4.47762 -17.77 -3.13058C-14.9356 -10.7388 -7.49978 -14.9257 -1.1617 -12.4823C5.17638 -10.0389 8.01663 -1.89043 5.18218 5.71778Z" fill="#F7B803"/>
<path d="M44.1709 91.0452C36.1306 92.9839 28.3033 88.9369 26.6882 82.0061C25.0731 75.0753 30.2818 67.8852 38.3221 65.9466C46.3625 64.008 54.1897 68.0549 55.8049 74.9857C57.42 81.9165 52.2113 89.1066 44.1709 91.0452Z" fill="#F7B803"/>
<path d="M15.4996 86.7306C5.6627 104.585 -22.4581 103.966 -35.6589 90.6742C-48.8597 77.3824 -49.3531 49.0157 -32.3048 38.5968C-12.6932 28.2888 5.65296 21.3615 18.8538 34.6533C32.0546 47.9451 27.2598 65.3859 15.4996 86.7306Z" fill="#F7B803"/>
<path d="M127.502 126.108C127.637 126.513 128.177 126.716 129.123 126.716V128H115.406V126.716C115.992 126.716 116.397 126.581 116.622 126.311C116.848 126.04 116.893 125.77 116.757 125.5L113.041 115.972H91.0119L87.2954 125.5L87.2278 125.702C87.2278 125.973 87.3405 126.221 87.5657 126.446C87.836 126.626 88.1739 126.716 88.5793 126.716V128H75.2673V126.716C76.1683 126.716 76.7089 126.513 76.8891 126.108L95.6745 80.4283C95.8097 80.158 95.8772 79.9102 95.8772 79.6849C95.8772 79.2795 95.697 79.0092 95.3367 78.8741C94.9763 78.6939 94.5933 78.6038 94.1879 78.6038V77.3199H109.933V78.6038C109.527 78.6038 109.144 78.6939 108.784 78.8741C108.423 79.0092 108.243 79.2795 108.243 79.6849C108.243 79.9102 108.311 80.158 108.446 80.4283L127.502 126.108ZM102.026 87.8613L94.0528 108.201H110L102.026 87.8613ZM167.328 125.973C167.328 126.198 167.486 126.378 167.801 126.513C168.162 126.649 168.5 126.716 168.815 126.716V128H159.152V125.635C156.449 127.842 153.228 128.946 149.489 128.946C146.155 128.946 143.182 128.27 140.569 126.919C137.956 125.567 135.907 123.653 134.42 121.175C132.933 118.697 132.19 115.837 132.19 112.593C132.19 109.305 132.933 106.399 134.42 103.876C135.952 101.308 138.024 99.3263 140.637 97.9298C143.295 96.4882 146.245 95.7674 149.489 95.7674C153.228 95.7674 156.449 96.8261 159.152 98.9434V79.3471C159.152 79.1218 158.994 78.9416 158.679 78.8065C158.364 78.6713 158.048 78.6038 157.733 78.6038V77.3199H168.747V78.6038C168.432 78.6038 168.117 78.6713 167.801 78.8065C167.486 78.9416 167.328 79.1218 167.328 79.3471V125.973ZM149.894 121.716C151.651 121.716 153.25 121.31 154.692 120.499C156.179 119.688 157.327 118.607 158.138 117.256C158.994 115.859 159.422 114.395 159.422 112.864C159.422 110.116 158.521 107.863 156.719 106.106C154.962 104.304 152.687 103.403 149.894 103.403C147.101 103.403 144.804 104.282 143.002 106.039C141.245 107.75 140.366 109.98 140.366 112.728C140.366 115.476 141.267 117.661 143.069 119.283C144.916 120.905 147.191 121.716 149.894 121.716ZM191.449 128.811C188.115 128.811 185.165 128.113 182.597 126.716C180.074 125.275 178.092 123.315 176.65 120.837C175.254 118.36 174.555 115.566 174.555 112.458C174.555 109.395 175.254 106.602 176.65 104.079C178.092 101.556 180.097 99.5741 182.664 98.1325C185.232 96.6459 188.16 95.9026 191.449 95.9026C194.602 95.9026 197.463 96.6234 200.031 98.0649C202.598 99.4615 204.626 101.421 206.112 103.944C207.599 106.422 208.342 109.26 208.342 112.458C208.342 115.251 207.666 117.909 206.315 120.432C205.009 122.909 203.072 124.937 200.504 126.513C197.936 128.045 194.918 128.811 191.449 128.811ZM191.449 121.04C194.107 121.04 196.247 120.274 197.868 118.742C199.535 117.166 200.369 115.139 200.369 112.661C200.369 110.093 199.535 107.976 197.868 106.309C196.247 104.642 194.107 103.809 191.449 103.809C188.971 103.809 186.899 104.642 185.232 106.309C183.565 107.931 182.732 109.98 182.732 112.458C182.732 115.071 183.565 117.166 185.232 118.742C186.899 120.274 188.971 121.04 191.449 121.04ZM234.312 96.1053C237.51 96.1053 240.371 96.8036 242.893 98.2001C245.416 99.5516 247.376 101.489 248.772 104.011C250.214 106.489 250.935 109.35 250.935 112.593C250.935 115.882 250.214 118.765 248.772 121.243C247.376 123.72 245.394 125.635 242.826 126.986C240.303 128.338 237.397 129.014 234.109 129.014C230.37 129.014 227.014 127.752 224.04 125.229V145.637C224.04 145.862 224.198 146.042 224.513 146.177C224.874 146.312 225.212 146.38 225.527 146.38V147.664H214.107V146.38C214.422 146.38 214.738 146.312 215.053 146.177C215.414 146.042 215.594 145.862 215.594 145.637V98.9434C215.594 98.7181 215.414 98.538 215.053 98.4028C214.738 98.2677 214.422 98.2001 214.107 98.2001V96.9162H224.04V99.7543C227.104 97.3216 230.527 96.1053 234.312 96.1053ZM233.433 121.783C236.091 121.783 238.321 120.972 240.123 119.351C241.925 117.729 242.826 115.521 242.826 112.728C242.826 110.025 241.947 107.818 240.19 106.106C238.434 104.349 236.181 103.471 233.433 103.471C230.595 103.471 228.275 104.349 226.473 106.106C224.716 107.818 223.838 110.048 223.838 112.796C223.838 114.328 224.243 115.792 225.054 117.188C225.91 118.585 227.059 119.711 228.5 120.567C229.987 121.378 231.631 121.783 233.433 121.783ZM272.145 95.4971C275.614 95.4971 278.609 96.263 281.132 97.7946C283.655 99.2813 285.569 101.308 286.876 103.876C288.182 106.444 288.835 109.282 288.835 112.391C288.835 113.337 288.768 114.283 288.633 115.229H263.901C264.081 117.391 265.027 119.08 266.739 120.297C268.451 121.513 270.501 122.121 272.888 122.121C274.51 122.121 275.861 121.896 276.943 121.445C278.069 120.995 279.06 120.319 279.916 119.418C280.006 119.238 280.051 119.125 280.051 119.08C280.051 118.9 279.983 118.72 279.848 118.54C279.713 118.314 279.578 118.157 279.443 118.067L280.254 117.053L287.754 122.932L287.011 123.946C286.335 123.54 285.862 123.495 285.592 123.81C282.438 127.595 278.204 129.487 272.888 129.487C269.464 129.487 266.446 128.743 263.833 127.257C261.22 125.725 259.193 123.698 257.752 121.175C256.355 118.607 255.657 115.769 255.657 112.661C255.657 109.372 256.355 106.422 257.752 103.809C259.148 101.196 261.085 99.1686 263.563 97.7271C266.086 96.2405 268.946 95.4971 272.145 95.4971ZM280.727 108.944C280.546 107.097 279.6 105.543 277.889 104.282C276.222 102.975 274.33 102.322 272.212 102.322C270.095 102.322 268.271 102.975 266.739 104.282C265.207 105.543 264.284 107.097 263.968 108.944H280.727ZM312.058 95.5647V105.836H310.774C310.774 105.521 310.707 105.228 310.571 104.957C310.436 104.642 310.256 104.484 310.031 104.484H305.639V125.973C305.639 126.198 305.796 126.378 306.112 126.513C306.427 126.649 306.742 126.716 307.058 126.716V128H296.043V126.716C296.358 126.716 296.674 126.649 296.989 126.513C297.304 126.378 297.462 126.198 297.462 125.973V104.484H294.219C293.993 104.484 293.813 104.642 293.678 104.957C293.543 105.228 293.475 105.521 293.475 105.836H292.191V95.5647H293.475C293.475 95.8801 293.543 96.1954 293.678 96.5107C293.813 96.781 293.993 96.9162 294.219 96.9162H297.462V89.0101C297.462 88.7848 297.304 88.6047 296.989 88.4695C296.674 88.3344 296.358 88.2668 296.043 88.2668V86.9829H307.058V88.2668C306.742 88.2668 306.427 88.3344 306.112 88.4695C305.796 88.6047 305.639 88.7848 305.639 89.0101V96.9162H310.031C310.256 96.9162 310.436 96.781 310.571 96.5107C310.707 96.1954 310.774 95.8801 310.774 95.5647H312.058Z" fill="white"/>
</g>
<defs>
<linearGradient id="paint0_linear_314_23" x1="195" y1="0" x2="195" y2="199" gradientUnits="userSpaceOnUse">
<stop stop-color="#FFD457"/>
<stop offset="1" stop-color="#F5C02D"/>
</linearGradient>
</defs>
</svg>
